<?xml version="1.0" encoding="UTF-8"?>
<!DOCTYPE svg PUBLIC "-//W3C//DTD SVG 1.1//EN" "http://www.w3.org/Graphics/SVG/1.1/DTD/svg11.dtd">
<!-- Creator: CorelDRAW X7 -->
<svg xmlns="http://www.w3.org/2000/svg" xml:space="preserve" width="450mm" height="250mm" version="1.1" style="shape-rendering:geometricPrecision; text-rendering:geometricPrecision; image-rendering:optimizeQuality; fill-rule:evenodd; clip-rule:evenodd"
viewBox="0 0 45000 25000"
 xmlns:xlink="http://www.w3.org/1999/xlink">
 <defs>
  <style type="text/css">
   <![CDATA[
    .fil0 {fill:#231F1F}
    .fil1 {fill:#252121}
    .fil3 {fill:#3B3838}
    .fil2 {fill:#555252}
    .fil4 {fill:#5A5757}
   ]]>
  </style>
 </defs>
 <g id="Layer_x0020_1">
  <metadata id="CorelCorpID_0Corel-Layer"/>
  <g id="_2862196365072">
   <path class="fil0" d="M1071 10569c0,394 -11,499 122,883 168,484 302,456 487,413 -42,-155 -259,-134 -383,-834 -64,-369 -38,-727 88,-1075 78,-214 159,-372 348,-472 315,74 410,633 478,976 83,415 129,840 195,1288 66,448 122,844 188,1293 59,402 74,837 303,1179 265,-22 267,-188 339,-482 164,-666 299,-1300 517,-1969l656 -1805c48,-122 224,-492 234,-612 -180,0 -194,47 -352,415 -645,1513 -876,2323 -1255,3930l-60 152c-152,-654 -275,-1725 -385,-2472 -85,-574 -200,-2130 -813,-2034 -266,42 -410,235 -513,440 -99,197 -194,501 -194,786z"/>
   <path class="fil0" d="M17950 11971c0,818 203,1795 987,2161 1152,538 2150,-621 2542,-1568 40,-96 69,-138 110,-239 58,-144 3,-206 -98,-98 -104,109 -812,1887 -1795,1887 -334,0 -469,-17 -773,-206 -486,-302 -762,-1083 -762,-1699l0 -450c0,-601 321,-1584 551,-1963 84,-138 139,-240 232,-376 210,-303 681,-835 1069,-835 339,0 468,0 721,284 57,64 70,106 118,174 186,257 331,-104 -124,-432 -576,-416 -1091,-52 -1520,280 -130,100 -406,443 -497,588 -439,698 -761,1579 -761,2492z"/>
   <path class="fil0" d="M10357 12474c0,-514 279,-1059 767,-1059 364,0 688,195 688,344l0 1297c0,135 -356,423 -608,423 -305,0 -470,-50 -663,-317 -110,-153 -184,-421 -184,-688zm1323 -2249c174,151 132,344 132,608 0,256 0,512 0,768 -90,-25 -554,-439 -1195,-111 -158,81 -313,220 -393,374 -631,1219 651,2148 1422,1475 74,-65 68,-98 166,-125l0 344 351 -98c120,-42 29,35 99,-61 -139,-3 -212,-75 -212,-211l0 -3016c-117,3 -258,44 -370,53z"/>
   <path class="fil0" d="M24881 11653l0 -238c-84,0 -216,13 -293,30 -201,44 28,23 28,156l0 1666c0,103 -44,152 -117,200 -128,83 112,-66 -34,19l601 19c-5,-4 -13,-15 -15,-11l-48 -31c-66,-48 -122,-111 -122,-222l0 -1429c0,-437 1217,-619 1217,53l0 1402c0,133 -72,162 -122,196 -56,37 -13,-1 -63,42l635 0c-5,-4 -14,-15 -16,-11 0,0 -126,-56 -159,-184 -86,-337 127,-1399 -150,-1703 -236,-258 -776,-273 -1078,-139 -156,69 -151,109 -264,185z"/>
   <path class="fil0" d="M8135 11627l0 -212c-59,0 -268,20 -314,34 -145,46 49,5 49,204l0 1588c0,131 -70,185 -138,232l588 32c-5,-3 -14,-14 -17,-9 -3,5 -13,-7 -17,-10 -85,-50 -151,-93 -151,-219l0 -1508c0,-310 1217,-622 1217,133 0,243 50,1366 -52,1508l-133 105 635 0c-6,-3 -15,-14 -18,-9 0,0 -121,-45 -156,-161 -135,-438 100,-1410 -143,-1709 -188,-231 -457,-237 -742,-237 -270,0 -445,129 -608,238z"/>
   <path class="fil0" d="M28929 11468c156,136 105,286 105,609 0,917 -152,1481 847,1481 352,0 540,-213 635,-238 49,209 176,257 376,191 62,-21 63,-27 100,-59l-185 0c-63,-269 -27,-1655 -27,-2037 -116,3 -258,44 -370,53 57,50 106,71 106,185l0 1535c0,300 -1217,632 -1217,-132l0 -1641c-117,3 -258,44 -370,53z"/>
   <path class="fil1" d="M13902 13241c-67,18 -743,539 -1044,65 -184,-290 -105,-763 395,-926 159,-52 428,-117 559,-208 66,-46 77,-78 143,-122 0,232 40,1000 -26,1138l14 38c1,5 4,15 6,21 13,63 19,418 401,257 49,-21 47,-22 81,-52l-185 0c-105,-451 40,-1344 -61,-1632 -52,-146 -135,-248 -264,-318 -679,-365 -1313,114 -1327,394 -4,86 48,116 91,181l159 0c57,-85 79,-91 79,-238 -112,-75 -29,-80 -211,-80 74,-278 889,-533 1160,-129 359,534 -445,644 -811,743 -682,183 -652,764 -409,1007 314,314 1048,163 1250,-139z"/>
   <path class="fil1" d="M6865 13241c-101,27 -420,311 -730,256 -538,-97 -572,-904 81,-1117 143,-47 249,-72 381,-121 235,-88 209,-134 321,-209 0,232 40,1000 -26,1138l36 175c17,76 38,115 94,145 45,23 127,33 207,20l165 -76 -185 0c-174,-746 232,-1650 -325,-1950 -396,-213 -970,-166 -1237,203 -162,225 -74,260 1,372l159 0c57,-85 79,-91 79,-238 -112,-75 -29,-80 -211,-80 74,-278 889,-533 1160,-129 359,534 -445,644 -811,743 -215,58 -402,154 -501,346 -121,235 -56,513 92,661 314,314 1048,163 1250,-139z"/>
   <path class="fil0" d="M40622 13214c-114,76 -170,128 -308,195 -92,44 -274,105 -403,94 -514,-40 -684,-878 79,-1132 334,-112 470,-101 685,-347 0,360 45,854 -27,1164 4,6 7,8 8,19 1,10 6,14 7,19 1,5 4,15 5,21 1,7 3,15 4,23 43,327 69,298 452,209l-40 -13c-139,-37 -174,26 -172,-357 2,-265 52,-1209 -63,-1392 -193,-308 -692,-423 -1082,-283 -135,48 -265,132 -348,234 -140,171 -163,227 -41,409l159 0c47,-70 61,-74 106,-159 -69,-130 -36,-159 -238,-159 124,-185 281,-272 543,-329 268,-58 538,51 637,207 54,84 90,236 69,313 -119,443 -1127,244 -1400,796 -271,544 385,1062 1130,681 94,-48 208,-102 238,-213z"/>
   <path class="fil0" d="M23056 13505c-284,0 -472,-96 -615,-311 -441,-667 -163,-1805 588,-1805 1090,0 1090,2116 27,2116zm-1085 -1137l0 132c0,1023 1255,1349 1833,748 397,-412 416,-1162 26,-1549 -255,-252 -434,-337 -827,-337 -569,0 -1032,464 -1032,1006z"/>
   <path class="fil0" d="M34114 12526c0,-405 96,-848 449,-1032 662,-347 1165,259 1165,874 0,357 -16,511 -196,809 -251,413 -880,467 -1211,15 -103,-140 -207,-425 -207,-666zm-265 -79c0,1119 1245,1367 1806,828 615,-591 416,-1913 -774,-1913 -600,0 -1032,486 -1032,1085z"/>
   <path class="fil0" d="M26918 11918c0,738 1402,426 1402,1164 0,369 -582,528 -1078,337 -267,-103 -267,-175 -377,-205 26,72 52,84 163,155 68,43 164,80 237,106 1065,384 1924,-740 615,-1170 -167,-55 -309,-102 -468,-167 -598,-247 -196,-723 167,-723 216,0 576,6 688,159 -218,51 -200,318 53,318 75,0 132,-92 132,-159 0,-406 -1534,-639 -1534,185z"/>
   <path class="fil0" d="M42817 13029c0,141 -105,294 -201,354 -432,269 -912,60 -1254,-169 59,221 665,351 907,326 935,-93 846,-831 491,-1062 -423,-276 -1159,-257 -1159,-692 0,-398 601,-415 915,-333 118,31 144,70 249,95l-100 59c-247,219 258,452 258,126 0,-359 -1170,-582 -1447,-72 -133,243 -70,499 139,640 305,205 1202,285 1202,728z"/>
   <path class="fil0" d="M31415 10225c41,56 133,62 133,344 0,386 45,2584 -45,2786 -48,109 -110,111 -167,150l591 -35c-3,-3 -10,-9 -14,-12 -184,-156 -127,-304 -127,-641l0 -2645c-92,21 -263,53 -371,53z"/>
   <path class="fil1" d="M23108 15516l0 1005c-117,3 -122,-8 -132,106l397 0c-9,-114 -15,-103 -132,-106l0 -873 282 564c37,80 51,134 88,203 98,-71 221,-415 300,-573 18,-36 29,-59 43,-89 6,-12 21,-45 26,-54l28 822 -106 0 0 106 450 0 0 -106 -106 0 0 -1005 106 0 0 -106 -371 0c-55,237 -243,456 -291,661 -70,-51 -300,-589 -317,-661l-397 0c10,114 15,103 132,106z"/>
   <path class="fil0" d="M29405 15516l132 0 0 1005 -132 0 0 106 370 0 0 -106 -132 0 0 -899c28,32 31,35 53,79 20,39 25,66 45,113 75,180 229,414 272,601l414 -776c2,-4 6,-12 10,-17l0 899 -133 0 0 106 476 0 0 -106 -132 0 0 -1005 132 0 0 -106c-505,0 -329,-52 -520,327 -55,108 -108,271 -194,334 -47,-201 -155,-333 -226,-514 -69,-179 -4,-147 -435,-147l0 106z"/>
   <path class="fil0" d="M36759 11865l0 -450c-108,0 -279,32 -370,53 106,93 132,118 132,318l0 1322c0,229 -64,292 -185,397l608 0c-56,-49 -74,-32 -128,-109 -105,-150 -57,-1078 -57,-1372 0,-243 413,-582 767,-582l265 26c-5,4 -13,3 -15,12 -3,11 -112,64 -107,173 8,205 334,203 334,0 0,-338 -808,-426 -1211,166 -31,45 -2,11 -33,46z"/>
   <path class="fil1" d="M32712 15516l105 0 0 1005 -105 0 0 106 370 0 0 -106 -132 0 0 -899c74,54 109,148 164,233 84,132 445,663 471,772l211 0 0 -1111c118,-3 123,8 133,-106l-397 0c9,114 15,103 132,106l0 794c-54,-40 -110,-149 -154,-217 -500,-777 -302,-683 -798,-683l0 106z"/>
   <path class="fil0" d="M17394 15966l-238 0 0 -450 265 0c88,0 158,129 158,212 0,130 -47,238 -185,238zm-582 -450l132 0 0 1005 -132 0 0 106 476 0c-9,-114 -15,-103 -132,-106l0 -450c198,0 154,-7 222,123 245,470 191,433 545,433l0 -106c-190,-4 -264,-225 -397,-476 109,-52 265,-93 265,-344 0,-390 -550,-291 -979,-291l0 106z"/>
   <path class="fil0" d="M7659 15516l132 0 0 1005 -132 0 0 106 370 0 0 -106 -132 0 0 -899c83,30 138,167 185,238l328 518c163,248 81,249 333,249l0 -1111 133 0 0 -106 -371 0 0 106 133 0 0 794c-71,-48 -248,-339 -307,-435l-275 -465 -397 0 0 106z"/>
   <path class="fil0" d="M21548 15516l105 0 0 1005 -105 0 0 106 952 0c0,-320 31,-344 -106,-344 -103,0 -79,68 -79,238l-423 0 0 -476 264 0c3,131 2,129 132,132l0 -370c-130,3 -129,2 -132,132l-264 0 0 -423 423 0 0 212 159 0 0 -318 -926 0 0 106z"/>
   <path class="fil0" d="M33426 13452c-150,4 -187,58 -342,-1 -318,-120 -240,-536 -240,-977 0,-273 4,-549 -1,-821 -5,-294 -80,-238 583,-238l-582 -26 -27 -688c0,417 -85,688 -502,688l291 26c0,503 2,1006 -1,1509 -3,484 281,679 675,594 96,-21 88,-15 146,-66z"/>
   <path class="fil0" d="M4642 11459c-19,67 -28,-25 12,35 0,1 21,25 28,37 33,55 40,45 40,122l0 1614c0,131 -75,166 -159,238l575 -18c0,0 -151,-64 -151,-246l0 -1826 -345 44z"/>
   <path class="fil0" d="M15437 16019c0,-280 43,-503 324,-517 476,-24 407,1019 99,1019 -148,0 -212,22 -308,-63 -32,-28 -56,-67 -72,-113 -24,-74 -43,-235 -43,-326zm317 634c784,0 749,-1269 26,-1269 -370,0 -554,250 -567,615 -13,339 184,654 541,654z"/>
   <path class="fil0" d="M6310 16204l0 -371c0,-453 634,-449 634,27l0 317c0,479 -634,469 -634,27zm-239 -238c0,974 1112,862 1112,53 0,-869 -1112,-812 -1112,-53z"/>
   <path class="fil0" d="M36124 16177c0,-199 -58,-688 318,-688 134,0 317,141 317,318 0,261 75,758 -337,728 -193,-13 -298,-159 -298,-358zm-238 -185c0,882 1111,896 1111,0 0,-819 -1111,-808 -1111,0z"/>
   <polygon class="fil0" points="31257,15516 31389,15516 31389,16521 31257,16521 31257,16627 32209,16627 32209,16283 32050,16283 32050,16521 31601,16521 31601,16045 31892,16045 31892,16177 31997,16177 31997,15807 31892,15807 31892,15939 31601,15939 31601,15516 32024,15516 32024,15728 32183,15728 32183,15410 31257,15410 "/>
   <path class="fil0" d="M38347 11468c73,64 132,96 132,212 0,291 39,1551 -43,1703 -47,85 -82,70 -142,122l608 0c-100,-86 -185,-155 -185,-344l0 -1746c-108,0 -279,32 -370,53z"/>
   <path class="fil0" d="M38161 16283l0 106c0,136 -502,322 -502,-132l-159 0 0 370 159 0 0 -79c579,387 944,-380 484,-591 -113,-52 -268,-55 -363,-112 -100,-60 -243,-442 355,-303l26 212 186 0 0 -344 -167 18c-153,39 -33,-44 -283,-44 -290,0 -484,267 -341,525 134,242 605,171 605,374z"/>
   <path class="fil0" d="M9378 15701c0,539 662,305 662,609 0,177 -147,240 -306,224 -353,-37 -64,-277 -303,-277 -115,0 -79,112 -79,370l185 0 0 -79c92,61 101,105 265,105 430,0 622,-525 159,-714 -255,-104 -398,-27 -398,-291 0,-113 167,-165 282,-150 155,20 195,89 195,256l158 0 0 -344 -158 0 0 79c-74,-49 -110,-105 -238,-105 -224,0 -424,105 -424,317z"/>
   <path class="fil0" d="M10833 15516c0,699 -120,1137 503,1137 520,0 423,-610 423,-1137l106 0 0 -106 -370 0c9,114 15,103 132,106 0,739 96,1005 -344,1005 -326,0 -238,-604 -238,-1005l132 0 0 -106 -476 0c10,114 15,103 132,106z"/>
   <path class="fil0" d="M19749 15595l53 0c12,149 123,403 158,556l-370 0c12,-142 120,-389 159,-556zm-503 926l0 106 370 0c-11,-131 -24,-106 -158,-106 29,-62 72,-181 79,-264l450 0c29,62 72,180 79,264l-132 0 0 106 476 0c-17,-203 -75,21 -163,-260l-313 -957 -238 0 -331 1018c-34,88 -16,85 -119,93z"/>
   <path class="fil0" d="M26045 15569l189 580 -374 2 185 -582zm-556 1058l371 0 0 -106 -132 0 83 -263 446 -1c25,108 70,160 79,264l-132 0 0 106 449 0 0 -106c-123,-10 -63,34 -166,-230 -102,-263 -199,-649 -310,-881l-211 0c-10,117 -70,220 -103,321 -37,109 -72,216 -106,317 -36,110 -70,214 -108,315 -110,289 -143,65 -160,264z"/>
   <path class="fil0" d="M34352 15648c0,113 185,113 185,0l0 -132 265 0 0 1005c-182,0 -176,-12 -186,106l556 0 0 -106 -159 0 0 -1005 265 0 0 212 159 0 0 -318 -1085 0 0 238z"/>
   <polygon class="fil0" points="13690,15728 13849,15728 13849,15516 14114,15516 14114,16521 13955,16521 13955,16627 14484,16627 14484,16521 14325,16521 14325,15516 14590,15516 14590,15728 14749,15728 14749,15410 13690,15410 "/>
   <path class="fil0" d="M4616 15913c0,356 73,740 530,740 167,0 326,-107 391,-223 78,-140 -18,-150 -68,-90 -310,377 -614,72 -614,-110 0,-349 -74,-702 270,-728 190,-15 285,69 285,278l159 0 0 -370 -159 0 0 79c-465,-311 -794,127 -794,424z"/>
   <polygon class="fil0" points="12341,15516 12474,15516 12474,16521 12341,16521 12341,16627 13241,16627 13241,16283 13082,16283 13082,16521 12685,16521 12685,15516 12817,15516 12817,15410 12341,15410 "/>
   <polygon class="fil0" points="27077,15516 27209,15516 27209,16521 27077,16521 27077,16627 27976,16627 27976,16283 27817,16283 27817,16521 27421,16521 27421,15516 27553,15516 27553,15410 27077,15410 "/>
   <polygon class="fil0" points="28452,15516 28585,15516 28585,16521 28452,16521 28452,16627 28929,16627 28929,16521 28796,16521 28796,15516 28929,15516 28929,15410 28452,15410 "/>
   <path class="fil0" d="M18347 15516l132 0 0 1005 -132 0 0 106 476 0c-10,-114 -15,-103 -133,-106l0 -1005c118,-3 123,8 133,-106l-476 0 0 106z"/>
   <path class="fil0" d="M4701 10945l-5 153c107,93 67,79 238,79 93,-107 79,-66 79,-238 -107,-93 -67,-79 -238,-79l-74 85z"/>
   <path class="fil0" d="M38479 10886c-56,116 -56,149 0,265l211 26c109,-162 109,-155 0,-317l-211 26z"/>
   <path class="fil2" d="M33426 13452c106,-8 112,-15 159,-79l-159 79z"/>
   <polygon class="fil3" points="40648,13188 40622,13214 "/>
   <polygon class="fil4" points="6865,13241 6892,13188 "/>
   <polygon class="fil4" points="13902,13241 13929,13188 "/>
  </g>
 </g>
</svg>
