<?xml version="1.0" encoding="UTF-8"?>
<!DOCTYPE svg PUBLIC "-//W3C//DTD SVG 1.1//EN" "http://www.w3.org/Graphics/SVG/1.1/DTD/svg11.dtd">
<!-- Creator: CorelDRAW X7 -->
<svg xmlns="http://www.w3.org/2000/svg" xml:space="preserve" width="1650mm" height="350mm" version="1.1" style="shape-rendering:geometricPrecision; text-rendering:geometricPrecision; image-rendering:optimizeQuality; fill-rule:evenodd; clip-rule:evenodd"
viewBox="0 0 165000 35000"
 xmlns:xlink="http://www.w3.org/1999/xlink">
 <defs>
  <style type="text/css">
   <![CDATA[
    .fil0 {fill:#252121}
    .fil2 {fill:#3B3838}
    .fil1 {fill:#555252}
   ]]>
  </style>
 </defs>
 <g id="Layer_x0020_1">
  <metadata id="CorelCorpID_0Corel-Layer"/>
  <g id="_2862129422576">
   <path class="fil0" d="M3764 14336c-178,-664 -888,-406 -1428,-2976 -846,-4029 1985,-9920 3384,-2973 505,2509 1674,12543 2342,14350 170,461 180,357 413,714 1067,-103 1101,-1003 1312,-1863 710,-2885 991,-4527 2002,-7624 523,-1601 1084,-3151 1640,-4710 325,-915 1747,-4024 1805,-4647 -621,1 -594,29 -857,577 -162,340 -358,690 -504,1032 -1118,2619 -1531,3636 -2467,6443 -507,1523 -978,3011 -1373,4566 -175,687 -1083,4551 -1251,4792 -1117,-4108 -1420,-12595 -2749,-15890 -492,-1219 -1322,-2017 -2650,-1287 -2121,1166 -2643,6114 -1089,8815 391,678 706,883 1470,681z"/>
   <path class="fil0" d="M80794 15650c-486,-29 -1142,1562 -1388,2027 -1071,2024 -3089,4937 -5431,5318 -4617,751 -6424,-4244 -6411,-7936 15,-4004 1095,-7622 3508,-10837 1087,-1448 2642,-2805 4569,-2576 1014,121 1585,646 2117,1463 698,1073 1456,424 274,-890 -1417,-1574 -3439,-1353 -5126,-363 -4347,2553 -6844,10340 -6015,15306 656,3931 3081,7421 7562,6207 3798,-1028 6711,-7225 6341,-7719z"/>
   <path class="fil0" d="M37355 17306c-139,-747 146,-2240 474,-2905 368,-747 941,-1363 1735,-1645 1568,-557 3377,359 3431,1367 43,788 48,4739 -87,5049 -626,1440 -4648,3021 -5553,-1866zm5120 -9319c681,602 513,1409 512,2355 0,990 0,1980 0,2970 -328,-88 -2152,-1693 -4626,-428 -3741,1915 -2372,9197 2705,7826 977,-264 1494,-1036 1921,-1151l0 1331 1728 -491c-110,-196 -694,-55 -800,-846 -53,-399 -6,-1192 -6,-1632l0 -10139c-423,12 -983,165 -1434,205z"/>
   <path class="fil0" d="M93578 13517l0 -922 -1369 144c22,369 270,4 348,671l-2 5638c7,1110 85,1085 -718,1638l2458 0c-661,-595 -719,-60 -717,-2049 1,-921 0,-1843 0,-2765 0,-1311 -554,-2960 2372,-3268 691,-73 1570,184 1996,744 503,662 343,1552 343,2422l-19 4180c-87,433 -426,491 -698,736l2458 0c-487,-428 -706,-362 -723,-1223 -28,-1446 213,-4792 -201,-5637 -737,-1504 -3093,-1550 -4287,-1117 -728,264 -712,458 -1241,808z"/>
   <path class="fil0" d="M28752 13414l0 -819 -1369 144c23,383 249,78 339,680l8 5630c12,1515 -231,1206 -719,1637l2458 0c-901,-627 -718,-478 -717,-2049l-3 -4099c-8,-650 -119,-673 328,-1106 1035,-1001 3307,-1154 4041,-82 481,701 345,1586 345,2420 0,560 60,3766 -40,4158 -147,575 -355,468 -677,758l2458 0c-1008,-698 -819,-1342 -819,-3073 0,-2212 719,-5119 -2659,-5124 -1490,-3 -1790,151 -2974,925z"/>
   <path class="fil0" d="M109247 12800c632,558 410,1912 410,3277 0,1011 -149,2717 269,3521 475,916 1505,1284 2492,1297 1287,18 1905,-183 2860,-937l266 475c373,621 1357,341 1674,65 -444,-34 -621,125 -770,-255l-32 -7648 -1433 208c609,547 409,736 409,2250l7 4001c0,558 36,581 -388,944 -1039,889 -3053,1109 -3897,152 -540,-613 -434,-1447 -433,-2229 1,-1776 0,-3551 0,-5326 -423,12 -984,165 -1434,205z"/>
   <path class="fil0" d="M51078 19661c-420,113 -1660,1200 -2827,991 -2019,-361 -2271,-3478 314,-4323 2374,-776 1058,-178 2718,-1276 0,866 173,3805 -103,4404 230,360 -26,960 505,1237 399,209 1085,101 1433,-205 -853,-28 -816,254 -811,-1442 2,-785 0,-1570 0,-2355 0,-1412 243,-2826 -963,-3646 -1017,-692 -2472,-782 -3634,-337 -487,187 -970,510 -1304,950 -572,755 -481,829 -39,1496 764,2 921,-104 922,-921 -462,-306 -154,-307 -820,-308 325,-1209 3510,-1963 4494,-499 1415,2107 -1908,2543 -3142,2875 -786,211 -1549,588 -1937,1340 -421,817 -308,1896 354,2558 1130,1130 3996,749 4840,-539z"/>
   <path class="fil0" d="M23837 19661c-420,113 -1660,1200 -2827,991 -2020,-361 -2272,-3478 314,-4323 2374,-776 1058,-178 2717,-1276 0,866 174,3805 -102,4404 229,360 -27,960 505,1237 237,124 527,123 802,77 292,-48 476,-146 631,-282 -853,-28 -816,254 -812,-1442 3,-785 1,-1570 1,-2355 0,-1412 243,-2826 -963,-3646 -1393,-947 -3851,-821 -4938,613 -572,755 -481,829 -39,1496 763,2 921,-104 921,-921 -461,-306 -153,-307 -819,-308 325,-1209 3510,-1963 4493,-499 1416,2107 -1907,2543 -3142,2875 -2570,692 -2578,2902 -1582,3898 1130,1130 3996,749 4840,-539z"/>
   <path class="fil0" d="M154513 19559c-725,474 -1670,1204 -2751,1120 -1974,-155 -2646,-3401 304,-4386 1114,-372 1839,-428 2651,-1342 0,1266 168,3383 -102,4506 257,404 -110,947 402,1237 515,290 1005,-5 1441,-111 -325,-207 -244,-21 -640,-178 -382,-855 -182,-3762 -179,-4942 2,-903 94,-1401 -519,-2042 -1349,-1410 -4194,-1310 -5397,325 -195,266 -369,522 -317,874 54,373 360,626 774,521 606,-154 864,-1213 -378,-1215 901,-1373 3640,-1929 4569,-473 1339,2096 -1935,2517 -3196,2871 -3539,992 -2503,5101 1103,4482 667,-114 2043,-535 2235,-1247z"/>
   <path class="fil0" d="M89482 17511c-230,1140 -287,1578 -1150,2435 -704,700 -1788,928 -2736,631 -1960,-615 -2536,-3126 -2204,-4958 954,-5271 7139,-3319 6090,1892zm-3789 -5018c-724,165 -814,72 -1533,515 -467,288 -784,599 -1091,1060 -1958,2947 -160,7261 4144,6705 5250,-678 4024,-9545 -1520,-8280z"/>
   <path class="fil0" d="M129320 17408c-320,-1725 522,-4268 2379,-4789 2097,-589 3589,1268 3843,3175 728,5444 -5235,6947 -6222,1614zm2355 -4915c-993,226 -1785,353 -2620,1579 -641,941 -907,2261 -688,3367 505,2551 2379,3588 4838,3344 2357,-234 3726,-2781 3331,-4959 -430,-2377 -2491,-3872 -4861,-3331z"/>
   <path class="fil0" d="M101259 19559c400,1040 3171,1667 4964,970 1807,-703 2042,-3030 262,-3943 -1118,-574 -4103,-1139 -4287,-2379 -120,-812 930,-1520 1631,-1602 785,-92 2206,52 2835,525 -247,212 -875,541 -391,1101 386,448 1124,212 1119,-406 -10,-1208 -4100,-2337 -5538,-430 -706,937 -437,2073 533,2681 1225,768 5194,1109 4440,3314 -520,1520 -2785,1489 -4254,903 -490,-195 -1022,-654 -1314,-734z"/>
   <path class="fil0" d="M157380 19559c168,622 1512,1050 2105,1172 893,185 1897,162 2770,-189 1848,-743 2084,-3034 281,-3988 -1045,-552 -4082,-1002 -4232,-2335 -171,-1515 1822,-1822 3204,-1553 570,112 831,330 1300,441 -343,233 -1034,585 -451,1168 415,415 1125,113 1069,-540 -111,-1285 -4487,-2121 -5571,-256 -560,963 -352,2041 627,2623 1145,680 5221,1162 4423,3244 -778,2033 -3636,1463 -5525,213z"/>
   <path class="fil0" d="M118874 7987c269,377 171,18 367,452 232,515 145,1916 145,2518l0 6964c0,1439 265,2014 -820,2765l2458 0c-1010,-899 -717,-1179 -717,-2663l0 -10241c-304,86 -1062,204 -1433,205z"/>
   <path class="fil0" d="M86717 28469l0 3891c-479,10 -471,-59 -512,410l1536 0c-41,-469 -33,-400 -512,-410l0 -3379 1444 2965c527,-378 1107,-2362 1526,-2965l0 3379 -410 0 0 410 1741 0 0 -410 -410 0 0 -3891 410 0 0 -410 -1434 0c-160,664 -823,2089 -1202,2534l-1197 -2513 -1492 -21c41,469 33,401 512,410z"/>
   <path class="fil0" d="M111090 28469l513 0 0 3891 -513 0 0 410 1434 0 0 -410 -512 0 0 -3482c357,405 1242,2738 1536,3073 112,-127 88,-93 207,-306 69,-123 139,-280 203,-411l1127 -2356 0 3482 -513 0 0 410 1844 0 0 -410 -512 0 0 -3891 512 0 0 -410 -1434 0 -1213 2554c-415,-453 -908,-1889 -1245,-2554l-1434 0 0 410z"/>
   <path class="fil0" d="M139561 14336l0 -1741c-353,0 -1106,107 -1425,231 611,457 508,918 504,1714l3 4511c-7,880 -136,1112 -721,1635l2356 0c-887,-781 -718,-550 -717,-2458 0,-1021 -52,-2177 -5,-3180 74,-1578 2524,-2786 3990,-2222 -770,576 -562,1285 418,1305 1303,-1249 -740,-1794 -1804,-1596 -509,94 -1063,320 -1518,630 -603,411 -685,721 -1081,1171z"/>
   <path class="fil0" d="M123892 28469l409 0 0 3891 -409 0 0 410 1434 0 0 -410 -512 0 0 -3482c294,211 1156,1737 1432,2152 236,354 450,713 676,1065 516,804 168,675 1169,675l0 -4301c479,-9 470,60 512,-410l-1536 0c41,470 33,401 512,410l0 3072 -2256 -3480 -1431 -2 0 410z"/>
   <path class="fil0" d="M63674 30210l0 -1741c795,0 1589,-188 1631,827 45,1117 -797,914 -1631,914zm-1331 -1741l512 0 0 3891 -512 0 0 410 1843 0c-41,-469 -33,-400 -512,-410l0 -1741c1581,-3 853,2151 2356,2151l614 0 0 -410c-796,-15 -1209,-1197 -1536,-1843 1657,-767 1144,-2458 -205,-2458l-2560 0 0 410z"/>
   <path class="fil0" d="M26909 28469l512 0 0 3891 -512 0 0 410 1434 0 0 -410 -512 0 0 -3482c311,118 119,-9 356,361l2230 3505 691 26 0 -4301 512 0 0 -410 -1434 0 0 410 512 0 0 3072c-359,-236 -1155,-1668 -1454,-2130 -1091,-1691 -425,-1352 -2335,-1352l0 410z"/>
   <path class="fil0" d="M80675 28469l409 0 0 3891 -409 0 0 410 3686 0 -38 -1267 -575 -77c-166,373 -104,358 -104,934l-1638 0 0 -1843 1024 0c10,533 -21,502 512,512l0 -1434c-533,11 -502,-20 -512,512l-1024 0 0 -1638 1638 0 0 819 615 0 0 -1229 -3584 0 0 410z"/>
   <path class="fil0" d="M15140 12826c594,440 402,937 401,1715l1 4507c7,992 56,1039 -615,1638l2355 0c-1032,-711 -717,-1285 -717,-3687 0,-1468 0,-2936 0,-4404 -326,0 -1112,109 -1425,231z"/>
   <path class="fil0" d="M126657 20481c-738,15 -1310,330 -1925,-431 -603,-746 -350,-7130 -257,-7383 544,-199 1560,-72 2182,-72l-2253 -102 -103 -2663c0,843 -43,2072 -991,2490l-954 275 1126 0c0,1946 10,3895 -2,5840 -20,3048 2748,2427 3177,2046z"/>
   <path class="fil0" d="M24041 31541c-294,854 -1273,1190 -1980,546 -491,-447 -519,-2162 -319,-2845 241,-824 1380,-1144 2025,-498 504,505 506,2126 274,2797zm-1638 -3482c-1378,419 -1839,1389 -1616,2948 182,1277 1354,2122 2668,1792 1961,-492 2027,-3381 766,-4407 -369,-300 -853,-458 -1309,-448 -377,9 -506,114 -509,115z"/>
   <path class="fil0" d="M57018 30927c-66,-348 44,-1196 111,-1528 274,-1358 2169,-1524 2425,425 99,752 61,2221 -741,2489 -1235,412 -1612,-416 -1795,-1386zm819 -2868c-347,90 -889,36 -1337,917 -150,297 -238,501 -291,839 -6,36 -58,516 -58,524l35 490c401,3243 4804,2407 4247,-856 -246,-1446 -1311,-2219 -2367,-1999 -310,64 -192,76 -229,85z"/>
   <path class="fil0" d="M137103 31336c-654,-3439 2213,-3609 2449,-1835 108,809 169,2277 -540,2721 -792,496 -1736,24 -1909,-886zm717 -3277c-648,197 -938,279 -1303,951 -1027,1894 296,4360 2370,3804 2696,-723 1800,-5627 -1067,-4755z"/>
   <polygon class="fil0" points="118259,28469 118771,28469 118771,32360 118259,32360 118259,32770 121946,32770 121946,31439 121332,31439 121332,32360 119591,32360 119591,30517 120717,30517 120717,31029 121127,31029 121127,29595 120717,29595 120717,30107 119591,30107 119591,28469 121229,28469 121229,29288 121844,29288 121844,28059 118259,28059 "/>
   <path class="fil0" d="M145705 12800c696,621 515,760 512,1741l3 4509c10,1521 -356,1315 -720,1636l2356 0c-1021,-911 -717,-1677 -717,-3687 0,-1468 0,-2936 0,-4404 -368,0 -1065,116 -1434,205z"/>
   <path class="fil0" d="M143043 31336l-615 0 0 1434c679,1 463,132 682,-290 1660,1532 3893,-1344 1809,-2303 -593,-272 -2101,-272 -1703,-1319 153,-401 693,-518 1101,-445 684,123 673,284 671,978l717 0 0 -1332c-946,1 -586,195 -927,98 -183,-52 -933,-510 -1757,85 -775,559 -724,1703 97,2199 672,407 2349,343 1827,1563 -171,400 -885,462 -1212,391 -694,-148 -691,-397 -690,-1059z"/>
   <path class="fil0" d="M33531 31404l-76 1366c132,0 402,14 509,-15 223,-60 123,5 292,-266 1467,1457 4004,-1304 1635,-2352 -693,-306 -857,-153 -1609,-644 0,-709 69,-1051 838,-1104 685,-46 1005,319 1006,1002l614 0 0 -1332c-674,0 -459,-132 -683,292 -738,-756 -1989,-326 -2330,279 -550,976 185,1834 1085,2074 340,91 952,169 1178,467 708,933 -1013,1675 -1642,1022 -410,-427 177,-1121 -817,-789z"/>
   <path class="fil0" d="M39198 28469c0,1939 -597,4403 1844,4403 2143,0 1741,-2277 1741,-4403l409 0 0 -410 -1434 0c42,470 34,401 513,410 0,1678 505,3891 -1229,3891 -1390,0 -1025,-2157 -1025,-3891l513 0 0 -410 -1844 0c41,469 33,401 512,410z"/>
   <path class="fil0" d="M73813 28776l724 2149 -1441 2c27,-305 490,-1894 717,-2151zm-2048 3994l1434 0c-46,-514 -96,-409 -615,-410l366 -1039 1682 15 344 1013 -549 11 0 410 1844 0c-68,-772 -300,51 -631,-1007 -132,-420 -266,-812 -406,-1233 -142,-424 -258,-786 -427,-1212l-482 -1259 -791 132 -171 442c-189,572 -1083,3373 -1299,3617 -324,365 -282,-265 -299,520z"/>
   <path class="fil0" d="M98084 28674l733 2247 -1450 6c11,-495 478,-1908 717,-2253zm-2150 4096l1433 0 0 -410 -512 0 324 -1018 1725 -6 344 1011 -549 13 0 410 1741 0c-23,-1023 -44,318 -558,-1081 -159,-435 -286,-784 -428,-1211 -255,-765 -512,-1672 -858,-2419l-790 133 -177 436c-258,674 -1102,3372 -1309,3607 -302,346 -342,32 -386,535z"/>
   <path class="fil0" d="M130241 28776l38 448 576 77c162,-365 103,-275 103,-832l1024 0 0 3891c-552,-1 -668,-141 -717,410l2151 0 0 -410 -614 0 0 -3891 1024 0 0 819 614 0 0 -1229 -4199 0 0 717z"/>
   <path class="fil0" d="M18641 31490c-332,77 -562,1165 -1772,779 -982,-314 -812,-1197 -816,-2060 -5,-859 -31,-1711 1049,-1794 320,-25 771,45 964,396 415,753 -321,682 752,682l0 -1434c-625,1 -458,-155 -685,300 -1131,-1134 -3630,75 -2927,2903 739,2974 4354,1029 3435,228z"/>
   <polygon class="fil0" points="50259,29288 50873,29288 50873,28469 51897,28469 51897,32360 51283,32360 51283,32770 53331,32770 53331,32360 52716,32360 52716,28469 53741,28469 53741,29288 54355,29288 54355,28059 50259,28059 "/>
   <polygon class="fil0" points="45036,28469 45548,28469 45548,32360 45036,32360 45036,32770 48518,32770 48518,31439 47903,31439 47903,32360 46367,32360 46367,28469 46879,28469 46879,28059 45036,28059 "/>
   <polygon class="fil0" points="102078,28469 102590,28469 102590,32360 102078,32360 102078,32770 105560,32770 105560,31439 104946,31439 104946,32360 103410,32360 103410,28469 103922,28469 103922,28059 102078,28059 "/>
   <polygon class="fil0" points="107404,28469 107916,28469 107916,32360 107404,32360 107404,32770 109247,32770 109247,32360 108735,32360 108735,28469 109247,28469 109247,28059 107404,28059 "/>
   <path class="fil0" d="M68283 28469l512 0 0 3891 -512 0 0 410 1843 0c-41,-469 -33,-400 -512,-410l0 -3891c479,-9 471,60 512,-410l-1843 0 0 410z"/>
   <path class="fil0" d="M146217 10547c-233,503 -233,521 0,1024 470,113 1117,250 1117,-512 1,-689 -681,-651 -1117,-512z"/>
   <path class="fil0" d="M15729 10556c-737,468 -55,1434 657,1048 651,-352 156,-1565 -657,-1048z"/>
   <path class="fil1" d="M126657 20481c336,-29 415,-27 614,-307l-614 307z"/>
   <polygon class="fil1" points="23837,19661 23939,19457 "/>
   <polygon class="fil2" points="154615,19457 154513,19559 "/>
   <polygon class="fil1" points="51078,19661 51180,19457 "/>
  </g>
 </g>
</svg>
