<svg xmlns="http://www.w3.org/2000/svg" xml:space="preserve" width="287.999" height="287.999" style="shape-rendering:geometricPrecision;text-rendering:geometricPrecision;image-rendering:optimizeQuality;fill-rule:evenodd;clip-rule:evenodd" viewBox="0 0 7620 7620"><path d="m2805 6006-78-213c-96-450-218-1480-271-1925-46-385-172-1206-339-1540-289-579-740-159-874 132-200 434-197 1015-43 1473 38 113 71 176 142 255 87 98 126 98 298 98-80-152-158-143-261-426-365-998 383-2751 730-757 48 274 366 3247 643 3247 229 0 268-438 333-725l222-836c96 411 104 698 393 1089 249 338 569 506 912 525h130c218-12 443-81 664-203 430-237 1121-1261 1129-1623-127 11-165 103-220 203s-89 180-141 283c-222 437-772 1208-1359 1208-1037 0-1323-1048-1323-1932 0-399 398-1356 583-1772 213-478 149-711 702-1044 811-489 1053 329 1176 329 234 0-86-608-688-608-436 0-911 430-1115 683-270 334-469 722-621 1179-83 247-125 443-176 723-42 234-122 477-184 716-59 233-124 472-185 715-27 109-55 235-91 359-33 113-86 264-88 387z" style="fill:#dfb159"/><path d="M3789 7370c-1959 0-3548-1588-3548-3547 0-1960 1589-3548 3548-3548s3547 1588 3547 3548c0 1959-1588 3547-3547 3547z" style="fill:none;stroke:#dfb159;stroke-width:169.33;stroke-dasharray:338.66 846.65"/></svg>