<?xml version="1.0" encoding="UTF-8"?>
<!DOCTYPE svg PUBLIC "-//W3C//DTD SVG 1.1//EN" "http://www.w3.org/Graphics/SVG/1.1/DTD/svg11.dtd">
<!-- Creator: CorelDRAW X7 -->
<svg xmlns="http://www.w3.org/2000/svg" xml:space="preserve" width="55.5624mm" height="55.5624mm" version="1.1" style="shape-rendering:geometricPrecision; text-rendering:geometricPrecision; image-rendering:optimizeQuality; fill-rule:evenodd; clip-rule:evenodd"
viewBox="0 0 5556 5556"
 xmlns:xlink="http://www.w3.org/1999/xlink">
 <defs>
  <style type="text/css">
   <![CDATA[
    .fil0 {fill:#DFB159}
   ]]>
  </style>
 </defs>
 <g id="Layer_x0020_1">
  <metadata id="CorelCorpID_0Corel-Layer"/>
  <path class="fil0" d="M1773 4974l-78 -213c-96,-450 -217,-1480 -271,-1925 -46,-385 -172,-1206 -339,-1540 -289,-579 -740,-159 -874,132 -200,434 -197,1015 -43,1473 38,113 72,177 142,255 87,98 126,98 299,98 -81,-152 -158,-143 -262,-426 -365,-998 383,-2751 731,-757 47,274 365,3247 642,3247 230,0 268,-438 333,-725l222 -836c96,411 104,698 393,1089 250,338 569,506 912,525l131 0c217,-12 442,-81 663,-203 431,-237 1121,-1261 1129,-1623 -126,11 -165,103 -220,203 -55,101 -89,180 -141,283 -222,437 -772,1208 -1358,1208 -1038,0 -1323,-1048 -1323,-1932 0,-399 397,-1355 582,-1772 213,-478 149,-710 702,-1044 811,-489 1053,329 1176,329 234,0 -85,-608 -688,-608 -436,0 -910,430 -1115,683 -270,334 -469,722 -621,1179 -83,248 -125,443 -176,724 -42,233 -122,476 -184,715 -59,233 -124,472 -184,715 -28,109 -56,236 -92,359 -33,113 -86,264 -88,387z"/>
 </g>
</svg>
