<svg xmlns="http://www.w3.org/2000/svg" xml:space="preserve" width="210" height="150" style="shape-rendering:geometricPrecision;text-rendering:geometricPrecision;image-rendering:optimizeQuality;fill-rule:evenodd;clip-rule:evenodd" viewBox="0 0 5556 3969"><defs><style>.fil1{fill:#dfb159}</style></defs><g id="Layer_x0020_1"><path d="m2341 2156-34-93c-42-196-95-646-118-840-21-167-76-526-148-671-126-253-323-69-381 57-88 190-87 443-19 643 16 49 31 77 62 111 38 43 55 43 130 43-35-67-69-63-114-186-159-435 167-1200 318-330 21 119 160 1416 281 1416 100 0 117-191 145-316l97-365c42 179 45 304 171 475 109 147 248 221 398 229h57c95-5 193-35 289-89 188-103 489-550 493-707-56 4-72 44-96 88s-39 79-62 123c-97 191-337 527-592 527-453 0-577-457-577-842 0-174 173-591 254-773 93-209 65-310 306-455 354-214 459 143 513 143 102 0-38-265-300-265-190 0-397 188-487 298-117 145-204 315-271 514-36 108-54 193-76 316-19 102-54 208-80 312-26 101-55 205-81 311-12 48-24 103-40 157-14 49-37 115-38 169z" style="fill:#dfb159"/><g id="_2861646493920"><path class="fil1" d="M46 2971c0 51-1 65 16 115 22 64 40 60 64 54-6-20-34-17-50-109-9-48-5-95 11-140 10-28 21-49 46-62 41 9 53 83 62 128 11 54 17 109 26 168 8 59 16 110 24 169 8 53 10 110 40 154 35-2 35-24 44-62 22-88 39-171 68-258l86-236c6-16 29-65 31-80-24 0-26 6-46 54-85 198-115 304-165 514l-8 20c-20-86-36-226-50-323-11-76-26-279-106-267-35 6-54 31-68 58-12 26-25 65-25 103zM2255 3154c0 107 26 235 129 283 151 70 281-81 333-205 5-13 9-18 14-31 8-19 1-27-13-13-13 14-106 247-235 247-43 0-61-3-101-27-63-40-99-142-99-223v-58c0-79 42-208 72-257 11-18 18-32 30-50 27-39 89-109 140-109 44 0 61 0 94 37 8 9 9 14 16 23 24 34 43-14-17-56-75-55-142-7-198 36-17 13-54 58-65 77-58 91-100 207-100 326zM1261 3220c0-67 37-138 101-138 47 0 90 25 90 45v169c0 18-47 56-80 56-40 0-61-7-87-42-14-20-24-55-24-90zm173-294c23 20 18 45 18 79v101c-12-3-73-58-157-15-20 11-41 29-51 49-83 160 85 281 186 193 10-8 9-13 22-16v45l46-13c15-5 3 5 13-8-19 0-28-10-28-28v-394c-15 0-34 6-49 7zM3162 3113v-31c-11 0-28 1-39 3-26 6 4 3 4 21v218c0 13-6 20-15 26-17 11 15-9-5 3l79 2c-1-1-2-2-2-1l-6-5c-9-6-16-14-16-29v-187c0-57 159-81 159 7v184c0 17-9 21-16 25-7 5-2 0-8 6h83c-1-1-2-2-2-1 0 0-17-8-21-25-11-44 17-183-19-222-31-34-102-36-142-19-20 9-19 15-34 25zM970 3109v-27c-7 0-35 2-41 4-19 6 7 1 7 27v207c0 18-9 25-18 31l77 4c-1 0-2-2-3-1 0 0-1-1-2-1-11-7-20-13-20-29v-197c0-41 160-82 160 17 0 32 6 179-7 197l-18 14h84c-1 0-2-2-3-1 0 0-16-6-20-21-18-58 13-185-19-224-25-30-60-31-97-31-35 0-58 17-80 31zM3692 3088c20 18 13 38 13 80 0 120-20 194 111 194 46 0 71-28 83-31 7 27 23 33 49 25 9-3 9-4 14-8h-25c-8-35-3-217-3-266-15 0-34 5-49 6 8 7 14 10 14 25v200c0 40-159 83-159-17v-214c-15 0-34 5-48 6zM1725 3320c-9 3-97 71-136 9-25-38-14-100 51-121 21-7 56-16 73-27 9-6 10-11 19-16 0 30 5 130-3 148l1 6c1 0 1 1 1 2 2 8 3 55 53 34 6-3 6-3 10-7h-24c-14-59 5-176-8-213-7-20-18-33-34-42-89-48-172 15-174 51-1 12 6 16 12 24h21c7-11 10-12 10-31-15-10-4-10-28-10 10-37 117-70 152-17 47 69-58 84-106 97-89 24-85 100-53 132 41 41 137 21 163-19zM804 3320c-13 4-55 41-95 34-71-13-75-118 10-146 19-6 33-10 50-16 31-12 28-18 42-27 0 30 5 130-3 148l5 23c2 10 4 15 12 19 6 3 16 5 27 3l22-10h-25c-22-98 31-216-42-255-52-28-127-22-162 26-21 30-10 34 0 49h21c7-11 10-12 10-31-14-10-4-10-27-10 9-37 116-70 151-17 47 69-58 84-106 97-28 7-52 20-65 45-16 31-8 67 12 87 41 41 137 21 163-19zM5222 3317c-15 10-23 17-41 25-12 6-35 14-52 13-68-5-90-115 10-148 44-15 62-14 90-46 0 47 6 112-4 152 1 1 1 2 1 3s1 2 1 2c0 1 1 2 1 3v3c6 43 9 39 59 28l-5-2c-18-5-23 3-22-47 0-35 7-158-9-182-25-40-90-55-141-37-18 6-35 17-46 31-18 22-21 29-5 53h21c6-9 8-10 14-21-9-17-5-20-32-20 17-25 37-36 72-44 35-7 70 7 83 28 7 11 12 30 9 40-16 58-148 32-183 105-36 71 50 139 148 89 12-7 27-14 31-28zM2923 3355c-37 0-62-13-80-41-58-87-22-236 77-236 142 0 142 277 3 277zm-142-149v17c0 134 164 177 240 98 52-54 54-152 3-202-33-33-56-44-108-44-74 0-135 60-135 131zM4370 3227c0-53 13-111 59-135 86-46 152 34 152 114 0 47-2 67-25 106-33 54-116 61-159 2-13-18-27-56-27-87zm-35-10c0 146 163 178 237 108 80-77 54-250-102-250-78 0-135 63-135 142zM3428 3147c0 97 184 56 184 153 0 48-76 69-141 44-35-14-35-23-49-27 3 9 6 11 21 20 9 6 21 11 31 14 139 50 252-97 80-153-22-7-40-13-61-22-78-32-26-94 22-94 28 0 75 0 90 20-29 7-26 42 7 42 10 0 17-12 17-21 0-53-201-84-201 24zM5509 3293c0 18-14 38-26 46-57 35-120 8-164-22 7 29 87 46 118 43 123-13 111-109 65-139-56-37-152-34-152-91 0-52 79-54 120-44 15 4 18 10 32 13l-13 8c-32 28 34 59 34 16 0-47-153-76-190-9-17 31-9 65 19 83 40 27 157 38 157 96zM4017 2926c5 7 17 8 17 45 0 50 6 338-6 364-6 15-14 15-21 20l77-5c-1 0-1-1-2-1-24-21-17-40-17-84v-346c-12 3-34 7-48 7zM2930 3618v132c-15 0-16-1-17 14h52c-2-15-2-14-18-14v-115l37 74c5 11 7 18 12 27 12-10 29-54 39-75 2-5 4-8 6-12 0-1 2-6 3-7l4 108h-14v14h59v-14h-14v-132h14v-14h-49c-7 31-32 60-38 87-9-7-39-77-41-87h-52c1 15 2 14 17 14zM3754 3618h17v132h-17v14h48v-14h-17v-118c4 4 4 5 7 10 3 6 3 9 6 15 10 24 30 54 35 79l55-102s0-1 1-2v118h-17v14h62v-14h-17v-132h17v-14c-66 0-43-6-68 43-7 14-14 36-26 44-6-27-20-44-29-68-9-23-1-19-57-19v14zM4716 3140v-58c-14 0-36 4-48 6 14 13 17 16 17 42v173c0 30-8 38-24 52h79c-7-6-9-4-16-14-14-20-8-141-8-180 0-32 54-76 101-76l34 3c0 1-1 1-2 2 0 1-14 8-14 23 1 26 44 26 44 0 0-45-106-56-158 21-4 6-1 2-5 6zM4187 3618h13v132h-13v14h48v-14h-17v-118c10 7 14 19 21 30 11 18 58 87 62 102h28v-146c15 0 16 1 17-14h-52c1 15 2 14 17 14v104c-7-5-14-19-20-28-65-102-39-90-104-90v14zM2182 3677h-31v-59h35c11 0 20 17 20 28 0 17-6 31-24 31zm-76-59h17v132h-17v14h62c-1-15-2-14-17-14v-59c26 0 20-1 29 16 32 61 25 57 71 57v-14c-25-1-34-30-52-63 15-6 35-12 35-45 0-51-72-38-128-38v14zM908 3618h17v132h-17v14h49v-14h-18v-118c11 4 18 22 25 31l43 68c21 32 10 33 43 33v-146h17v-14h-48v14h17v104c-9-6-32-44-40-57l-36-61h-52v14zM2726 3618h14v132h-14v14h124c0-42 4-45-14-45-13 0-10 8-10 31h-55v-63h34c1 17 1 17 18 18v-49c-17 1-17 0-18 18h-34v-56h55v28h21v-42h-121v14zM4280 3348c-20 1-24 8-45 0-41-16-31-70-31-128v-107c-1-39-11-31 76-31l-76-4-4-90c0 55-11 90-65 90l38 4v197c-1 63 36 89 88 78 13-3 12-2 19-9zM513 3087c-2 9-3-3 2 5 0 0 3 3 4 5 4 7 5 6 5 16v211c0 17-10 22-21 31l75-2s-19-9-19-33v-238l-46 5zM1926 3684c0-37 6-66 42-68 63-3 54 134 13 134-19 0-27 3-40-9-4-3-7-8-9-14-4-10-6-31-6-43zm42 83c102 0 98-166 3-166-49 0-73 33-74 80-2 45 24 86 71 86zM732 3708v-48c0-60 83-59 83 3v42c0 62-83 61-83 3zm-32-31c0 128 146 113 146 7 0-114-146-106-146-7zM4633 3705c0-26-7-90 42-90 17 0 41 18 41 41 0 34 10 99-44 96-25-2-39-21-39-47zm-31-25c0 116 145 118 145 0 0-107-145-105-145 0zM3996 3618h17v132h-17v14h125v-45h-21v31h-59v-63h38v18h14v-49h-14v18h-38v-56h56v28h20v-42h-121zM4924 3088c10 9 17 13 17 28 0 38 5 203-5 223-6 11-11 9-19 16h80c-13-11-25-20-25-45v-228c-14 0-36 4-48 6zM4900 3719v13c0 18-66 43-66-17h-21v49h21v-11c76 51 123-49 63-77-14-7-35-7-47-15-13-8-32-58 46-39l4 27h24v-45l-22 3c-20 5-4-6-37-6-38 0-63 35-44 69 17 31 79 22 79 49zM1133 3642c0 71 87 40 87 80 0 23-19 31-40 29-46-5-9-36-40-36-15 0-10 15-10 49h24v-11c12 8 13 14 35 14 56 0 81-69 20-94-33-13-52-3-52-38 0-14 22-21 37-19 21 2 26 11 26 33h21v-45h-21v11c-10-7-15-14-31-14-30 0-56 14-56 41zM1324 3618c0 92-16 149 65 149 68 0 56-80 56-149h14v-14h-49c1 15 2 14 17 14 0 97 13 132-45 132-42 0-31-79-31-132h18v-14h-63c2 15 2 14 18 14zM2490 3629h7c2 19 16 52 21 72h-49c2-18 16-51 21-72zm-66 121v14h49c-1-18-3-14-21-14 4-8 10-24 11-35h58c4 8 10 24 11 35h-18v14h63c-2-27-10 2-22-35l-41-125h-31l-43 134c-4 11-2 11-16 12zM3314 3625l25 76h-49l24-76zm-73 139h49v-14h-17l11-35h58c3 14 9 21 10 35h-17v14h59v-14c-16-2-9 4-22-30-13-35-26-85-41-116h-27c-1 16-9 29-14 42-4 15-9 29-13 42-5 14-10 28-15 41-14 38-18 8-21 35zM4401 3635c0 15 24 15 24 0v-17h35v132c-24 0-23-2-24 14h73v-14h-21v-132h34v28h21v-42h-142v31zM1697 3646h21v-28h35v132h-21v14h69v-14h-20v-132h34v28h21v-42h-139zM510 3670c0 47 10 97 69 97 22 0 43-14 52-29 10-19-3-20-9-12-41 49-81 9-81-14 0-46-9-92 36-96 24-2 37 9 37 37h21v-49h-21v11c-61-41-104 16-104 55zM1521 3618h17v132h-17v14h118v-45h-21v31h-52v-132h17v-14h-62zM3449 3618h18v132h-18v14h118v-45h-21v31h-52v-132h18v-14h-63zM3629 3618h18v132h-18v14h63v-14h-18v-132h18v-14h-63zM2307 3618h17v132h-17v14h62c-1-15-2-14-17-14v-132c15 0 16 1 17-14h-62v14zM521 3020l-1 20c14 12 9 10 32 10 12-14 10-8 10-31-14-12-9-10-31-10l-10 11zM4941 3012c-7 15-7 20 0 35l28 3c14-21 14-20 0-41l-28 3zM4280 3348c14-1 15-2 21-10l-21 10zM5225 3313l-3 4zM804 3320l4-7zM1725 3320l4-7z"/></g></g></svg>